# xmcd CD database file
#
# Track frame offsets:
#	150
#	19020
#	57350
#	89260
#	111837
#	140562
#	169090
#
# Disc length: 2340 seconds
#
# Revision: 1
# Processed by: cddbd v1.4PL0 Copyright (c) Steve Scherf et al.
# Submitted via: CDex 1.50Beta7
#
DISCID=58092207
DTITLE=Les McCann Ltd. - In San Francisco
DYEAR=1960
DGENRE=Jazz
TTITLE0=Oh, Them Golden Gaiters
TTITLE1=Red Sails In The Sunset
TTITLE2=Big Jim
TTITLE3=I  Am In Love
TTITLE4=Jeepers Creepers
TTITLE5=Gone On And Get That Church
TTITLE6=We'll See Yaw'll After While, Ya Heah
EXTD=YEAR: 1960
EXTT0=
EXTT1=
EXTT2=
EXTT3=
EXTT4=
EXTT5=
EXTT6=
PLAYORDER=
